<?xml version="1.0" encoding="UTF-8" standalone="no" ?>
<!-- Created with Inkscape (http://www.inkscape.org/) -->
<svg
    version="1.1"
    id="svg1"
    width="16"
    height="16"
    viewBox="0 0 1024 1024"
    fill="currentColor"
    stroke="currentColor"
    xmlns="http://www.w3.org/2000/svg"
    xmlns:svg="http://www.w3.org/2000/svg"
>
  <defs id="defs1" />
  <g id="g1">
    <path
            d="m 474,845.93059 c -8.70679,-1.48075 -19.61827,-7.38243 -26.53287,-14.3508 -18.13269,-18.27371 -20.66936,-45.76651 -6.08492,-65.94912 1.16479,-1.61188 5.43803,-5.11318 9.4961,-7.78068 l 7.3783,-4.84999 -9.3783,-0.10358 C 443.72024,752.83945 388.425,752.6881 326,752.56009 212.79584,752.32795 212.47784,752.32163 204,750.1344 193.39862,747.39932 177.56568,739.75274 168.93893,733.20152 149.04933,718.09722 135.79323,694.59681 133.00621,669.5 132.23143,662.52321 131.98909,619.14021 132.20462,526 l 0.30891,-133.5 2.65603,-9.63329 c 5.43955,-19.729 12.86673,-33.05535 25.33213,-45.45264 11.83728,-11.77262 24.40096,-19.28689 40.20172,-24.04445 7.57801,-2.28171 11.15157,-2.71427 25.79659,-3.1225 l 17,-0.47387 8.5691,-8.2457 c 20.17181,-19.4105 43.02385,-32.56881 54.02728,-31.10915 3.73929,0.49603 5.42434,0.15569 9.00202,-1.81824 7.20479,-3.97511 136.60678,-64.80941 196.9016,-92.56713 21.85043,-10.0592 27,-12.89831 27,-14.88588 0,-1.00524 1.37029,-4.56989 3.04508,-7.92145 3.97169,-7.94805 12.68201,-15.99312 22.64876,-20.91895 7.51628,-3.71475 7.96954,-3.80675 18.7543,-3.80675 9.55582,0 11.6234,0.3054 15.27406,2.25614 6.02069,3.21717 10.93474,7.80456 14.06602,13.13101 2.33865,3.97815 2.71178,5.71361 2.71178,12.61285 0,10.74432 -2.92503,17.03586 -12.0673,25.9559 -12.20318,11.90655 -30.80806,18.1648 -43.32736,14.57431 -2.72709,-0.78212 -3.8869,-0.6201 -5.9934,0.83723 -1.43657,0.99386 -12.96194,7.80159 -25.61194,15.12828 -12.65,7.32669 -26.6,15.42709 -31,18.00088 -4.4,2.57379 -14.525,8.42381 -22.5,13.00004 -7.975,4.57623 -17.65,10.18489 -21.5,12.4637 -3.85,2.2788 -26.3165,15.14496 -49.92555,28.59147 L 360.64891,309.5 559.07445,310.00455 757.5,310.5091 l 7.43273,2.2996 c 28.6553,8.86558 50.23548,27.8268 60.9427,53.54672 7.27775,17.48193 7.86412,24.05612 8.06702,90.44476 l 0.15374,50.30018 12.24208,12.19982 c 25.81701,25.7279 39.38029,53.2867 43.64137,88.67359 3.09318,25.68782 -1.10897,56.46103 -10.75791,78.78247 -25.54926,59.10456 -86.21681,94.03976 -151.60057,87.29868 -26.89238,-2.77261 -52.11803,-11.55695 -72.30446,-25.17861 l -7.19918,-4.85796 -12.30876,8.66458 c -13.62197,9.589 -113.08895,75.68882 -127.30876,84.60181 -4.95,3.10266 -10.90255,6.3094 -13.2279,7.12608 -5.73786,2.01518 -14.6255,2.65015 -21.2721,1.51977 z M 462.46369,812.25 c -3.28425,-7.66028 -3.71916,-10.29174 -2.31786,-14.02417 1.22434,-3.26107 3.08747,-4.74316 14.93609,-11.88138 16.61819,-10.01166 102.15342,-59.90828 106.36807,-62.04937 1.67751,-0.85219 3.1958,-1.67549 3.37399,-1.82957 0.17819,-0.15407 -0.72181,-1.52742 -2,-3.05188 C 576.0063,711.28237 573.5788,709 571.74819,709 c -1.1105,0 -14.44564,6.91301 -29.63364,15.36224 -15.188,8.44923 -39.87692,22.03364 -54.86425,30.18756 -14.98734,8.15393 -28.72747,16.04343 -30.53363,17.53221 -8.30194,6.84316 -11.31016,19.92911 -6.74785,29.35357 3.16721,6.54259 15.08623,16.8586 12.49487,10.81442 z M 779,746.19766 c 37.33373,-9.80628 66.92579,-33.64721 81.5234,-65.67956 13.92719,-30.5612 16.31989,-64.94048 6.85658,-98.5181 -3.17588,-11.26863 -11.93861,-28.89491 -19.20706,-38.63514 -7.37675,-9.88534 -23.32737,-25.25809 -33.28592,-32.08 -15.60807,-10.69201 -34.07507,-18.19845 -53.95357,-21.93097 -12.86036,-2.41474 -37.13511,-2.40562 -49.39715,0.0186 -52.66498,10.41181 -92.29996,45.44999 -105.99371,93.70074 -5.97813,21.06431 -5.9335,51.01471 0.10697,71.79322 4.30541,14.81006 11.21751,26.82758 20.75887,36.09179 5.31693,5.16248 5.87575,4.44745 1.53041,-1.95821 C 618.1084,674.50853 610.71731,654.58589 608.48643,636.56622 607.66889,629.96264 607,624.43378 607,624.27986 607,624.12594 607.36275,624 607.80611,624 c 0.44336,0 1.5759,4.01567 2.51676,8.92371 3.46301,18.06494 11.96858,38.45019 23.23534,55.68798 12.17359,18.62521 37.5414,40.58024 57.50493,49.76868 19.25127,8.86061 33.59099,11.62744 57.93686,11.17883 16.74818,-0.30861 19.58897,-0.62693 30,-3.36154 z m -54.5,-7.64605 c -33.15923,-5.18325 -63.62429,-23.81454 -83.65551,-51.16057 -9.58003,-13.07838 -17.48834,-31.81494 -20.37462,-48.27203 -1.71447,-9.77569 -1.93179,-30.15969 -0.41243,-38.68535 2.96303,-16.62654 11.12267,-35.56358 20.9274,-48.56869 6.69439,-8.87952 20.31788,-21.63591 29.64815,-27.76114 22.18483,-14.56412 51.5466,-21.7312 78.41225,-19.14008 28.97543,2.79461 52.2904,13.66661 73.67919,34.35734 19.29638,18.6666 31.46747,42.02364 35.26674,67.67891 1.26987,8.57507 1.33456,33.41685 0.1035,39.75 -0.99814,5.13496 -0.59996,5.39509 1.29954,0.84895 1.79483,-4.29564 3.30704,-14.1353 4.24155,-27.59895 0.65391,-9.42102 0.82199,-10.08896 1.63566,-6.5 1.59979,7.05643 0.0978,27.94485 -2.76472,38.44978 -12.26947,45.02656 -50.28673,79.00505 -96.84449,86.55617 -10.88981,1.7662 -30.01949,1.78742 -41.16221,0.0457 z m 45,-22.00776 c 45.0564,-13.37543 73.33792,-51.94189 71.16413,-97.04385 -1.29232,-26.81306 -12.27347,-50.47583 -32.21479,-69.41813 -15.04089,-14.28737 -34.37948,-23.69885 -55.72248,-27.11835 -10.55305,-1.69077 -31.80566,-0.70513 -41.96061,1.94602 -24.40799,6.37219 -44.753,20.64089 -57.47762,40.31113 -17.7321,27.41102 -19.74406,63.34527 -5.2884,94.45263 10.35964,22.29309 26.90432,39.29873 48.49977,49.85105 17.43955,8.5216 27.13489,10.50463 49,10.0222 12.72113,-0.28068 16.36732,-0.73687 24,-3.0027 z m -68.31018,-40.56948 c -6.19557,-3.77734 -6.18998,-3.72431 -6.18827,-58.69225 0.002,-54.89143 -0.0937,-54.00486 6.32178,-58.71104 5.20976,-3.82167 9.72692,-2.88179 23.17667,4.82235 60.76496,34.80672 78.38603,45.2212 80.75,47.72521 2.18216,2.31143 2.75,3.86609 2.75,7.52906 0,7.54448 0.88914,6.9382 -55.93624,38.14112 -40.8893,22.45238 -43.74765,23.53032 -50.87394,19.18555 z M 492,731.64918 c 2.64948,-0.9561 48.96917,-26.30427 100.70332,-55.10929 0.11183,-0.0623 -0.86062,-3.04434 -2.16099,-6.62684 -5.41698,-14.9236 -7.04264,-25.87469 -7.03833,-47.41305 0.004,-22.36954 1.50058,-33.31917 6.69512,-49 6.97591,-21.0583 17.79445,-38.39345 34.30088,-54.96223 16.97699,-17.04112 37.41755,-29.56994 61.212,-37.51924 18.23694,-6.09264 27.72159,-7.52821 49.288,-7.46012 27.62044,0.0872 45.29247,4.04139 67.25978,15.04965 5.91788,2.96557 10.98038,5.39194 11.25,5.39194 0.26962,0 0.48431,-21.4875 0.47708,-47.75 -0.0144,-52.22681 -0.50216,-57.79706 -6.30739,-72.02608 -8.53332,-20.91573 -27.14488,-37.00979 -48.80334,-42.20192 -8.2782,-1.98451 -11.48368,-2.00807 -274.16829,-2.01499 -297.84658,-0.008 -273.43228,-0.63664 -290.25207,7.47542 -10.90144,5.25768 -21.14596,14.27416 -28.09525,24.72738 -5.65092,8.5002 -8.73658,15.85256 -11.56678,27.56076 -2.06971,8.56215 -2.11798,10.9044 -2.51894,122.22943 -0.45656,126.76211 0.22288,157.24104 3.7562,168.5 6.3382,20.19678 18.21222,34.4195 36.3621,43.55461 8.81747,4.43797 15.31883,6.54705 24.14582,7.83304 3.27859,0.47766 65.81108,0.90359 138.96108,0.94652 104.77698,0.0615 133.74271,-0.18997 136.5,-1.18499 z M 328,688.9776 c -61.39048,-4.72701 -113.8677,-45.26081 -132.44658,-102.30275 -5.46766,-16.7871 -7.05759,-27.69309 -7.02317,-48.17485 0.0434,-25.83767 3.83473,-43.55118 13.93237,-65.09376 19.49487,-41.59091 60.19183,-73.40483 106.00643,-82.8681 26.59621,-5.49359 59.69495,-3.33476 83.47378,5.44451 22.73319,8.39321 41.37892,20.19573 57.58913,36.45321 21.27525,21.3373 35.3269,47.55389 42.10904,78.56414 2.79382,12.7743 2.53503,44.58557 -0.47745,58.68841 -12.57611,58.87486 -58.64853,104.26409 -118.01579,116.26578 -8.288,1.6755 -31.63668,4.29695 -34.64776,3.89004 -0.55,-0.0743 -5.275,-0.46431 -10.5,-0.86663 z m -21.08667,-95.11148 c 1.25975,-1.17364 3.5867,-5.02297 5.171,-8.55408 12.49574,-27.85065 42.04556,-49.71401 73.41567,-54.31887 9.58173,-1.40652 13.83074,-3.22889 15.36144,-6.58841 1.80351,-3.95828 1.35482,-6.34235 -1.78452,-9.48168 C 396.39362,512.23977 395.56989,512 389.03476,512 c -3.91549,0 -10.58761,0.71553 -14.82692,1.59007 -33.95745,7.00518 -62.02036,28.98766 -77.13643,60.42318 -5.93888,12.35055 -6.47559,16.73707 -2.43655,19.91417 3.51893,2.76799 9.27241,2.73927 12.27847,-0.0613 z m -34.601,-23.67023 c 1.47758,-1.54227 3.60891,-5.5355 4.73629,-8.87385 8.92675,-26.43353 31.96773,-51.68119 58.24316,-63.82119 10.24279,-4.73246 23.22803,-8.3603 36.03146,-10.06653 5.95278,-0.79329 11.67996,-1.90085 12.72708,-2.46125 4.91082,-2.62819 5.35072,-9.72588 0.87989,-14.19671 l -3.0698,-3.0698 -10.1802,0.62661 c -49.88745,3.07064 -95.68133,36.73877 -110.62055,81.32937 -3.90079,11.64307 -4.01261,17.11178 -0.4233,20.7011 3.60315,3.60314 8.12547,3.53817 11.67597,-0.16775 z m -40.80754,-12.60977 c 1.32763,-1.32763 2.65101,-3.46513 2.94084,-4.75 5.15306,-22.84456 10.44426,-36.73132 18.79825,-49.33612 20.84831,-31.45664 55.80313,-53.69982 91.90631,-58.48372 11.65385,-1.54421 14.61186,-2.65546 16.43063,-6.17256 2.00552,-3.87825 1.05785,-8.18811 -2.4076,-10.94936 -2.49561,-1.98849 -3.47051,-2.09234 -14.67322,-1.56304 -29.36124,1.38724 -60.3495,15.37762 -85.00816,38.37894 -21.14369,19.72259 -35.23945,44.52964 -40.97127,72.10512 -2.37943,11.44733 -2.06097,17.01113 1.16652,20.3799 3.49069,3.6435 8.40259,3.80595 11.8177,0.39084 z m 299.5909,94.95493 c -10.64221,-3.434 -21.07249,-14.24324 -24.06812,-24.94257 -3.15725,-11.27661 0.82725,-26.20045 9.25463,-34.66297 11.85319,-11.9026 30.58173,-13.99369 44.53872,-4.97286 10.99517,7.10652 16.39135,16.97375 16.4268,30.03735 0.0267,9.83285 -2.78807,17.24174 -9.22698,24.28692 -7.05729,7.72181 -14.40698,11.15202 -24.52074,11.44419 -4.81361,0.13906 -9.75423,-0.33494 -12.40431,-1.19006 z m 20.18643,-13.88951 c 14.94079,-6.26098 18.44215,-26.10603 6.58999,-37.35086 -4.6849,-4.44484 -9.73948,-6.30348 -17.08999,-6.28423 -23.29154,0.061 -30.52944,31.31607 -9.78025,42.23355 5.94794,3.12959 14.71132,3.73521 20.28025,1.40154 z M 557.5,560.9609 C 542.71029,557.92912 531.13743,548.8425 524.66452,535.17961 521.70844,528.93997 521.5,527.77545 521.5,517.5 c 0,-10.12956 0.23171,-11.47478 2.92818,-17 3.71286,-7.60786 13.29801,-17.27449 20.7012,-20.87719 7.12078,-3.46526 16.38686,-4.8233 24.79536,-3.63402 16.66372,2.35689 31.03661,15.65037 36.37473,33.643 1.78059,6.00163 1.93835,5.63792 -8.40147,19.36821 -3.52059,4.675 -9.06986,13.39472 -12.33172,19.37715 -4.83211,8.86235 -6.53927,11.13145 -9.21635,12.25 -3.55904,1.48706 -12.45542,1.64458 -18.84993,0.33375 z M 542.46797,536.25 c -1.38345,-3.24531 -1.70163,-13.01198 -0.5387,-16.53568 2.90094,-8.78993 11.14561,-17.06535 20.1763,-20.25157 4.50664,-1.59003 18.10048,-2.12461 21.39443,-0.84133 1.91263,0.74514 1.92974,0.67214 0.39153,-1.67112 -0.88466,-1.34767 -4.12952,-3.75002 -7.2108,-5.33856 -14.18632,-7.31369 -31.84132,-1.37592 -39.41606,13.2565 -2.75439,5.32078 -3.26467,7.3768 -3.26467,13.15403 0,7.61462 0.89455,10.70859 4.69189,16.22773 2.64258,3.84079 5.1202,5.15306 3.77608,2 z M 529.5,457.53384 c -6.1931,-1.66939 -11.74081,-7.46174 -13.37947,-13.96945 -1.52526,-6.05736 -1.50393,-56.15614 0.0265,-62.23403 1.49585,-5.94056 6.9953,-11.75763 12.51947,-13.24252 2.9915,-0.80412 37.58204,-1.04493 122.6574,-0.8539 l 118.49091,0.26606 3.84259,3.05797 c 2.11343,1.68188 4.86856,5.05688 6.12252,7.5 2.25084,4.38537 2.27635,4.84476 2,36.01718 l -0.27992,31.57514 -2.75112,4.1551 c -1.51311,2.28531 -4.66311,5.17649 -7,6.42486 L 767.5,458.5 651,458.69082 c -95.029,0.15564 -117.4215,-0.0576 -121.5,-1.15698 z M 589.19301,439.25 c 2.10419,-2.45001 2.6286,-4.17066 5.38653,-17.67412 1.33945,-6.55827 2.59172,-12.08048 2.78282,-12.27158 0.1911,-0.1911 1.38524,3.37476 2.65364,7.92413 3.02165,10.83772 4.48354,13.60786 7.59317,14.38833 3.54881,0.89069 5.61762,-1.48802 9.19629,-10.57386 2.72715,-6.92393 5.19454,-10.14073 5.19454,-6.77226 0,0.79052 1.10351,2.62802 2.45225,4.08334 3.06833,3.31078 8.57493,3.61884 11.54775,0.64602 1.86517,-1.86517 3.33333,-2 21.77749,-2 22.0399,0 24.22251,-0.54064 24.22251,-6 0,-5.60771 -1.83812,-6 -28.11393,-6 h -23.66891 l -1.69246,-4.25 c -2.28049,-5.72661 -4.28552,-7.75 -7.67969,-7.75 -3.93055,0 -6.11073,2.54191 -8.86028,10.33034 -1.29503,3.66831 -2.66386,6.66966 -3.04185,6.66966 -0.378,0 -0.96368,-1.72863 -1.30153,-3.84139 -1.09844,-6.86932 -5.73391,-21.6034 -7.3629,-23.40342 -1.62939,-1.80046 -5.85103,-2.31427 -7.96589,-0.96953 -2.01667,1.28231 -3.26718,5.9012 -5.83665,21.55815 -1.36175,8.2978 -2.49207,15.5525 -2.51183,16.12155 -0.0197,0.56905 -1.53574,-2.16101 -3.36887,-6.06681 C 576.74209,405.18878 574.17773,403 568.41235,403 564.10731,403 559,405.95242 559,408.44107 c 0,0.90268 -2.2648,1.44126 -7.46377,1.77491 -8.63348,0.55406 -10.76481,1.82744 -10.3373,6.17604 0.40579,4.1276 3.59498,5.57626 12.30107,5.58766 8.29274,0.0109 14.07459,-1.40321 15.41093,-3.76905 0.81612,-1.44486 1.22465,-1.08918 2.62947,2.28937 4.04911,9.73794 8.6227,18.98447 9.74203,19.69571 2.14499,1.36296 6.36063,0.85898 7.91058,-0.94571 z m 104.18315,-3.5 c 0.78225,-1.2375 2.42042,-6.75 3.64038,-12.25 1.21996,-5.5 2.55079,-10.61626 2.9574,-11.36947 0.46401,-0.85955 1.40274,1.08153 2.52109,5.21304 2.51737,9.2999 4.75398,12.65643 8.43357,12.65643 3.63176,0 5.56064,-2.496 7.72788,-10 2.11273,-7.31528 2.25242,-7.47491 4.46397,-5.10109 1.79219,1.9237 2.7177,2.0164 15.08111,1.51057 7.24445,-0.29639 13.98774,-0.97561 14.98509,-1.50937 2.61718,-1.40068 2.37225,-6.39523 -0.40916,-8.34341 C 751.11488,405.39216 747.95798,405 740.24611,405 c -8.91646,0 -10.39215,-0.23637 -10.92538,-1.75 -0.33907,-0.9625 -1.69785,-3.2125 -3.0195,-5 -4.83765,-6.54277 -10.21036,-3.58371 -13.45684,7.41146 -1.32025,4.4714 -2.84439,5.78315 -2.84439,2.44802 0,-2.96896 -4.98178,-21.3826 -6.17352,-22.81856 C 703.23723,384.58091 701.43725,384 699.82653,384 c -3.83906,0 -4.71441,2.15374 -10.29443,25.32881 -6.20686,25.77846 -5.99461,24.20868 -3.59725,26.60604 2.69664,2.69664 5.6665,2.62286 7.44131,-0.18485 z m -75.75447,287.10585 c 4.33307,-2.82929 9.58322,-6.22092 11.667,-7.53697 l 3.78868,-2.39281 -6.16149,-7.44888 C 620.35024,697.53974 612.65048,690 611.11019,690 c -0.51398,0 -4.23653,1.86363 -8.27235,4.1414 -4.03581,2.27778 -9.25212,5.22279 -11.5918,6.54448 l -4.25396,2.40307 10.04378,12.45553 C 602.55995,722.39501 607.67899,728 608.41152,728 c 0.73253,0 4.87711,-2.31487 9.21017,-5.14415 z M 312.47064,309.04751 c 0.32377,-0.52388 -0.95809,-2.97887 -2.84859,-5.45555 C 306.25093,299.17555 304,292.11245 304,285.95078 304,284.32785 303.65309,283 303.22909,283 c -2.70938,0 -33.75616,20.60997 -37.83318,25.11502 C 263.72921,309.9567 264.24348,310 287.786,310 c 14.18409,0 24.33812,-0.39181 24.68464,-0.95249 z m 35.75072,-20.16313 c 29.45699,-15.38785 41.44305,-21.69768 47.27864,-24.88893 2.75,-1.50386 10.85,-5.78106 18,-9.50488 7.15,-3.72382 25.15,-13.28713 40,-21.25181 14.85,-7.96469 30.825,-16.52705 35.5,-19.02747 4.675,-2.50043 13.9,-7.54743 20.5,-11.21557 6.6,-3.66814 16.7905,-9.22753 22.64555,-12.35421 5.85505,-3.12668 11.1928,-6.34427 11.86166,-7.1502 1.47431,-1.77643 0.51375,-6.35417 -1.49506,-7.12502 -0.78555,-0.30144 -6.73464,2.14504 -13.22021,5.43662 -6.48556,3.29158 -24.61694,12.16846 -40.29194,19.7264 -15.675,7.55793 -36.375,17.54905 -46,22.20249 -9.625,4.65344 -29.875,14.31457 -45,21.46918 -15.125,7.1546 -35.6,16.83945 -45.5,21.52189 -9.9,4.68244 -20.36002,9.55947 -23.24449,10.83786 -2.88447,1.27839 -6.37197,3.54091 -7.75,5.02783 -4.90324,5.29068 -2.36918,17.41144 3.64017,17.41144 0.98837,0 11.37243,-5.00203 23.07568,-11.11562 z m 224.69606,-134.3981 c 4.54906,-3.10823 9.64402,-5.53118 14.69343,-6.98758 l 7.72969,-2.22947 -2.76239,-1.80998 c -3.89362,-2.5512 -12.30224,-3.04519 -18.22344,-1.0706 -6.33137,2.11138 -14.33922,8.22096 -16.83723,12.84594 l -1.98252,3.67057 2.94027,3.06898 2.94027,3.06899 2.26909,-2.89937 c 1.24801,-1.59465 5.40278,-5.04051 9.23283,-7.65748 z"
            id="path1"
        />
  </g>
</svg>
